<?xml version="1.0" encoding="iso-8859-1"?>
<!-- Generator: Adobe Illustrator 19.0.0, SVG Export Plug-In . SVG Version: 6.00 Build 0)  -->
<svg version="1.1" id="Capa_1" xmlns="http://www.w3.org/2000/svg" xmlns:xlink="http://www.w3.org/1999/xlink" x="0px" y="0px"
	 viewBox="0 0 491.52 491.52" style="enable-background:new 0 0 491.52 491.52;" xml:space="preserve">
<circle style="fill:#334D5C;" cx="245.76" cy="245.76" r="245.76"/>
<path style="fill:#EBF0F3;" d="M288.942,104.96H145.854c-3.649,0-6.606,2.958-6.606,6.606v268.387c0,3.649,2.958,6.607,6.606,6.607
	h199.811c3.648,0,6.606-2.958,6.606-6.607V168.29c0-1.753-0.696-3.433-1.935-4.672l-56.723-56.723
	C292.375,105.656,290.694,104.96,288.942,104.96z"/>
<circle style="fill:#E1E6E9;" cx="245.76" cy="282.726" r="66.401"/>
<path style="fill:#D5D6DB;" d="M298.285,165.554h53.344c-0.324-0.705-0.734-1.376-1.293-1.935l-28.361-28.362l-28.362-28.362
	c-0.559-0.56-1.23-0.969-1.935-1.293v53.345C291.679,162.596,294.637,165.554,298.285,165.554z"/>
<circle style="fill:#E56353;" cx="245.76" cy="278.118" r="66.401"/>
<g>
	<path style="fill:#FFFFFF;" d="M194.875,279.141v-9.714l28.517-16.812v8.792l-21.314,12.256v0.854l21.314,12.563v8.792
		L194.875,279.141z"/>
	<path style="fill:#FFFFFF;" d="M255.9,242.355h6.055l-26.216,71.564h-6.055L255.9,242.355z"/>
	<path style="fill:#FFFFFF;" d="M296.645,269.427v9.714l-28.517,16.73v-8.792l21.309-12.563v-0.854l-21.309-12.256v-8.792
		L296.645,269.427z"/>
</g>
<rect x="157.471" y="185.293" style="fill:#64798A;" width="28.508" height="10.24"/>
<rect x="205.773" y="185.293" style="fill:#44C4A1;" width="43.003" height="10.24"/>
<rect x="261.939" y="185.293" style="fill:#E56353;" width="20.685" height="10.24"/>
<rect x="296.648" y="185.293" style="fill:#F6C358;" width="34.309" height="10.24"/>
<rect x="157.471" y="357.821" style="fill:#64798A;" width="28.508" height="10.24"/>
<rect x="205.773" y="357.821" style="fill:#E56353;" width="43.003" height="10.24"/>
<rect x="261.939" y="357.821" style="fill:#F6C358;" width="20.685" height="10.24"/>
<rect x="296.648" y="357.821" style="fill:#44C4A1;" width="34.309" height="10.24"/>
<g>
</g>
<g>
</g>
<g>
</g>
<g>
</g>
<g>
</g>
<g>
</g>
<g>
</g>
<g>
</g>
<g>
</g>
<g>
</g>
<g>
</g>
<g>
</g>
<g>
</g>
<g>
</g>
<g>
</g>
</svg>
