<?xml version="1.0" encoding="iso-8859-1"?>
<!-- Generator: Adobe Illustrator 19.0.0, SVG Export Plug-In . SVG Version: 6.00 Build 0)  -->
<svg version="1.1" id="Capa_1" xmlns="http://www.w3.org/2000/svg" xmlns:xlink="http://www.w3.org/1999/xlink" x="0px" y="0px"
	 viewBox="0 0 491.52 491.52" style="enable-background:new 0 0 491.52 491.52;" xml:space="preserve">
<circle style="fill:#45B39C;" cx="245.76" cy="245.76" r="245.76"/>
<path style="fill:#2F4859;" d="M249.412,209.534h-7.303v-18.76c0-9.8,7.973-17.773,17.772-17.773h37.056
	c6.229,0,11.297-5.068,11.297-11.296c0-6.229-5.067-11.297-11.297-11.297h-77.764v-7.303h77.764
	c10.255,0,18.599,8.344,18.599,18.599c0,10.255-8.344,18.599-18.599,18.599h-37.056c-5.773,0-10.469,4.696-10.469,10.469V209.534z"
	/>
<g>
	<path style="fill:#3A556A;" d="M319.029,211.448h-24.6c-2.048,0-3.71,1.661-3.71,3.71v4.478h33.43v-3.068
		C324.149,213.74,321.856,211.448,319.029,211.448z"/>
	<path style="fill:#3A556A;" d="M195.681,211.448h-23.19c-2.829,0-5.12,2.292-5.12,5.12v3.068h33.43v-3.068
		C200.801,213.74,198.509,211.448,195.681,211.448z"/>
</g>
<path style="fill:#64798A;" d="M321.936,219.166H170.86c-36.236,0-66.582,29.655-65.888,65.884
	c0.671,35.109,29.342,63.364,64.612,63.364c20.494,0,38.754-9.544,50.592-24.426c3.622-4.554,9.194-7.116,15.013-7.116h21.144
	c5.835,0,11.405,2.588,15.04,7.152c12.763,16.023,32.974,25.846,55.399,24.215c31.763-2.311,57.438-28.091,59.63-59.863
	C389.007,250.61,359.143,219.166,321.936,219.166z"/>
<g>
	<path style="fill:#EBF0F3;" d="M169.584,337.46c-29.593,0-53.67-24.077-53.67-53.67c0-29.594,24.077-53.67,53.67-53.67
		c29.593,0,53.669,24.076,53.669,53.67C223.253,313.383,199.176,337.46,169.584,337.46z"/>
	<path style="fill:#EBF0F3;" d="M321.936,337.46c-29.593,0-53.669-24.077-53.669-53.67c0-29.594,24.076-53.67,53.669-53.67
		c29.593,0,53.669,24.076,53.669,53.67C375.605,313.383,351.529,337.46,321.936,337.46z"/>
</g>
<path style="fill:#3A556A;" d="M163.468,315.906c-2.901,0-5.261-2.36-5.261-5.26v-15.48h-15.479c-2.901,0-5.261-2.36-5.261-5.26
	v-12.228c0-2.901,2.36-5.261,5.261-5.261h15.479v-15.48c0-2.901,2.36-5.261,5.261-5.261h12.229c2.901,0,5.261,2.36,5.261,5.261
	v15.48h15.48c2.901,0,5.261,2.36,5.261,5.261v12.228c0,2.9-2.36,5.26-5.261,5.26h-15.48v15.48c0,2.9-2.36,5.26-5.261,5.26H163.468z"
	/>
<path style="fill:#64798A;" d="M196.437,275.159h-15.705c-1.391,0-2.518-1.127-2.518-2.518v-15.705c0-1.391-1.127-2.518-2.518-2.518
	h-12.229c-1.391,0-2.518,1.127-2.518,2.518v15.705c0,1.391-1.127,2.518-2.517,2.518h-15.705c-1.39,0-2.518,1.127-2.518,2.517v12.229
	c0,1.391,1.128,2.518,2.518,2.518h15.705c1.391,0,2.517,1.127,2.517,2.518v15.705c0,1.391,1.127,2.518,2.518,2.518h12.229
	c1.39,0,2.518-1.127,2.518-2.518V294.94c0-1.391,1.127-2.518,2.518-2.518h15.705c1.391,0,2.518-1.127,2.518-2.518v-12.229
	C198.955,276.285,197.828,275.159,196.437,275.159z"/>
<g>
	<path style="fill:#3A556A;" d="M173.394,263.191l-3.321-3.321c-0.271-0.271-0.711-0.271-0.982,0l-3.321,3.321
		c-0.437,0.438-0.128,1.185,0.491,1.185h6.642C173.522,264.376,173.832,263.628,173.394,263.191z"/>
	<path style="fill:#3A556A;" d="M165.771,304.39l3.321,3.321c0.271,0.271,0.711,0.271,0.982,0l3.321-3.321
		c0.438-0.437,0.128-1.185-0.49-1.185h-6.642C165.643,303.205,165.333,303.953,165.771,304.39z"/>
	<path style="fill:#3A556A;" d="M190.182,287.602l3.321-3.321c0.271-0.271,0.271-0.711,0-0.982l-3.321-3.321
		c-0.437-0.437-1.185-0.127-1.185,0.49v6.643C188.997,287.73,189.745,288.04,190.182,287.602z"/>
	<path style="fill:#3A556A;" d="M148.983,279.978l-3.321,3.321c-0.271,0.271-0.271,0.711,0,0.982l3.321,3.321
		c0.438,0.438,1.185,0.128,1.185-0.491v-6.643C150.168,279.851,149.42,279.541,148.983,279.978z"/>
</g>
<path style="fill:#E1E6E9;" d="M333.236,267.633l-27.458,27.458c-5.678,5.678-14.884,5.678-20.562,0l0,0
	c-5.678-5.678-5.678-14.884,0-20.562l27.458-27.458c5.678-5.678,14.884-5.678,20.562,0l0,0
	C338.914,252.749,338.914,261.955,333.236,267.633z"/>
<ellipse style="fill:#E56353;" cx="322.674" cy="257.673" rx="11.674" ry="11.674"/>
<ellipse style="fill:#44C4A1;" cx="295.78" cy="284.489" rx="11.674" ry="11.674"/>
<path style="fill:#E1E6E9;" d="M358.655,293.051l-27.457,27.458c-5.678,5.678-14.884,5.678-20.562,0l0,0
	c-5.678-5.678-5.678-14.884,0-20.562l27.458-27.458c5.678-5.678,14.884-5.678,20.561,0l0,0
	C364.333,278.168,364.333,287.373,358.655,293.051z"/>
<ellipse style="fill:#27A2DB;" cx="348.077" cy="283.062" rx="11.674" ry="11.674"/>
<ellipse style="fill:#DC8744;" cx="321.249" cy="309.899" rx="11.674" ry="11.674"/>
<path style="fill:#E56353;" d="M238.343,230.74h-17.572c-0.883,0-1.598,0.715-1.598,1.597v5.477c0,0.882,0.715,1.597,1.598,1.597
	h17.572c0.882,0,1.597-0.715,1.597-1.597v-5.477C239.941,231.456,239.225,230.74,238.343,230.74z"/>
<path style="fill:#44C4A1;" d="M270.749,230.74h-17.572c-0.882,0-1.597,0.715-1.597,1.597v5.477c0,0.882,0.715,1.597,1.597,1.597
	h17.572c0.883,0,1.598-0.715,1.598-1.597v-5.477C272.347,231.456,271.632,230.74,270.749,230.74z"/>
<path style="fill:#3A556A;" d="M258.391,199.904h-25.262c-3.225,0-5.839,2.614-5.839,5.839v13.423h36.94v-13.423
	C264.23,202.518,261.616,199.904,258.391,199.904z"/>
<g>
</g>
<g>
</g>
<g>
</g>
<g>
</g>
<g>
</g>
<g>
</g>
<g>
</g>
<g>
</g>
<g>
</g>
<g>
</g>
<g>
</g>
<g>
</g>
<g>
</g>
<g>
</g>
<g>
</g>
</svg>
