<?xml version="1.0" encoding="iso-8859-1"?>
<!-- Generator: Adobe Illustrator 19.0.0, SVG Export Plug-In . SVG Version: 6.00 Build 0)  -->
<svg version="1.1" id="Capa_1" xmlns="http://www.w3.org/2000/svg" xmlns:xlink="http://www.w3.org/1999/xlink" x="0px" y="0px"
	 viewBox="0 0 491.52 491.52" style="enable-background:new 0 0 491.52 491.52;" xml:space="preserve">
<circle style="fill:#E05B49;" cx="245.76" cy="245.76" r="245.76"/>
<path style="fill:#3A556A;" d="M263.392,115.2H114.124c-5.061,0-9.164,4.103-9.164,9.163v253.033c0,5.061,4.103,9.163,9.164,9.163
	h149.268c5.06,0,9.163-4.102,9.163-9.163V124.363C272.555,119.303,268.452,115.2,263.392,115.2z"/>
<path style="fill:#64798A;" d="M263.392,104.96H114.124c-5.061,0-9.164,4.103-9.164,9.163v253.033c0,5.061,4.103,9.163,9.164,9.163
	h149.268c5.06,0,9.163-4.102,9.163-9.163V114.123C272.555,109.063,268.452,104.96,263.392,104.96z"/>
<g>
	<rect x="125.44" y="125.44" style="fill:#EBF0F3;" width="126.633" height="207.811"/>
	<circle style="fill:#EBF0F3;" cx="188.759" cy="355.84" r="11.633"/>
</g>
<rect x="125.44" y="304.128" style="fill:#D5D6DB;" width="126.633" height="29.102"/>
<path style="fill:#44C4A1;" d="M148.76,309.522h-13.36c-1.531,0-2.772,1.242-2.772,2.773v13.359c0,1.531,1.241,2.772,2.772,2.772
	h13.36c1.531,0,2.772-1.242,2.772-2.772v-13.359C151.533,310.764,150.291,309.522,148.76,309.522z"/>
<path style="fill:#64798A;" d="M179.878,309.522h-13.36c-1.531,0-2.772,1.242-2.772,2.773v13.359c0,1.531,1.241,2.772,2.772,2.772
	h13.36c1.531,0,2.773-1.242,2.773-2.772v-13.359C182.651,310.764,181.409,309.522,179.878,309.522z"/>
<path style="fill:#27A2DB;" d="M210.996,309.522h-13.36c-1.531,0-2.772,1.242-2.772,2.773v13.359c0,1.531,1.242,2.772,2.772,2.772
	h13.36c1.531,0,2.772-1.242,2.772-2.772v-13.359C213.769,310.764,212.527,309.522,210.996,309.522z"/>
<path style="fill:#DC8744;" d="M242.114,309.522h-13.36c-1.531,0-2.772,1.242-2.772,2.773v13.359c0,1.531,1.242,2.772,2.772,2.772
	h13.36c1.531,0,2.772-1.242,2.772-2.772v-13.359C244.886,310.764,243.645,309.522,242.114,309.522z"/>
<path style="fill:#3A556A;" d="M263.392,104.96H251.24c-3.629,2.118-7.105,4.533-10.375,7.265c-4.195-1.235-8.525-1.86-12.935-1.86
	c-13.48,0-25.592,5.837-34.049,15.074h58.194V246.61h20.48V114.123C272.554,109.063,268.452,104.96,263.392,104.96z"/>
<path style="fill:#E1E6E9;" d="M181.73,157.825c-16.805,7.095-28.225,23.715-28.225,42.565c0,25.485,20.735,46.22,46.22,46.22h52.35
	V125.439H193.88c-7.531,8.226-12.171,19.141-12.171,31.146C181.71,156.995,181.715,157.41,181.73,157.825z"/>
<path style="fill:#FFFFFF;" d="M354.355,164.607c-2.914-33.419-30.926-59.647-65.101-59.647c-18.001,0-34.298,7.279-46.124,19.047
	c-4.621-2.162-9.76-3.403-15.2-3.403c-19.872,0-35.982,16.109-35.982,35.981c0,2.924,0.388,5.752,1.044,8.474
	c-16.65,3.155-29.246,17.761-29.246,35.33c0,19.872,16.108,35.981,35.98,35.981h150.852c19.872,0,35.982-16.109,35.982-35.981
	C386.56,181.793,372.45,166.496,354.355,164.607z"/>
<g>
	<path style="fill:#EBF0F3;" d="M188.422,183.835l12.545-2.378l-1.278-5.297l-4.433,0.84c-6.506,1.232-11.914,5.106-15.362,10.335
		C182.436,185.672,185.291,184.428,188.422,183.835z"/>
	<path style="fill:#EBF0F3;" d="M353.093,176.695l-9.973-1.042l-0.87-9.99c-2.378-27.225-25.656-48.55-52.998-48.55
		c-14.163,0-27.5,5.507-37.549,15.508l-6.021,5.993l-7.699-3.598c-3.204-1.499-6.587-2.259-10.053-2.259
		c-8.314,0-15.637,4.287-19.901,10.761c3.755-2.475,8.243-3.926,13.067-3.926c3.466,0,6.848,0.76,10.053,2.259l7.699,3.598
		l6.021-5.994c10.049-10.001,23.385-15.508,37.548-15.508c27.341,0,50.619,21.326,52.997,48.55l0.87,9.99l9.974,1.042
		c12.149,1.268,21.312,11.453,21.312,23.694c0,4.824-1.452,9.31-3.924,13.066c6.472-4.264,10.759-11.587,10.759-19.9
		C374.405,188.148,365.243,177.963,353.093,176.695z"/>
</g>
<path style="fill:#3EA69B;" d="M275.153,161.369v56.32c15.552,0,28.16-12.608,28.16-28.16
	C303.313,173.976,290.705,161.369,275.153,161.369z"/>
<path style="fill:#44C4A1;" d="M246.993,189.529c0,15.552,12.608,28.16,28.161,28.16v-56.32
	C259.601,161.369,246.993,173.976,246.993,189.529z"/>
<polygon style="fill:#31978C;" points="266.886,185.606 266.886,209.241 283.42,209.241 283.42,185.606 289.457,185.606 
	275.153,171.302 260.849,185.606 "/>
<polygon style="fill:#FFFFFF;" points="266.886,184.119 266.886,207.755 283.42,207.755 283.42,184.119 289.457,184.119 
	275.153,169.816 260.849,184.119 "/>
<g>
</g>
<g>
</g>
<g>
</g>
<g>
</g>
<g>
</g>
<g>
</g>
<g>
</g>
<g>
</g>
<g>
</g>
<g>
</g>
<g>
</g>
<g>
</g>
<g>
</g>
<g>
</g>
<g>
</g>
</svg>
